<svg version="1.1" id="Layer_1" xmlns="http://www.w3.org/2000/svg" xmlns:xlink="http://www.w3.org/1999/xlink" x="0px" y="0px"
	 width="100%" viewBox="0 0 456 547" enable-background="new 0 0 456 547" xml:space="preserve">
<path fill="#000000" opacity="1.000000" stroke="none" 
	d="
M254.000000,548.000000 
	C169.333359,548.000000 85.166710,548.000000 1.000045,548.000000 
	C1.000030,365.666718 1.000030,183.333466 1.000015,1.000143 
	C152.999893,1.000095 304.999786,1.000095 456.999756,1.000048 
	C456.999847,183.333191 456.999847,365.666382 456.999939,547.999756 
	C389.500000,548.000000 322.000000,548.000000 254.000000,548.000000 
M359.515747,258.570496 
	C360.026520,257.377930 360.537323,256.185364 361.032532,254.501694 
	C361.032532,254.501694 361.018188,254.010574 361.019501,253.258423 
	C360.973999,252.508667 360.928497,251.758911 360.933258,250.084900 
	C361.954041,229.072037 363.249512,208.067398 363.880402,187.042831 
	C364.198730,176.434341 363.383423,165.786423 362.888947,155.165268 
	C362.821991,153.727203 362.007996,151.831589 360.900574,151.017960 
	C355.585419,147.112900 350.227783,143.208054 344.562012,139.848038 
	C323.739166,127.499306 302.433319,116.202866 279.494568,108.042664 
	C264.500275,102.708626 249.158722,100.039688 233.444168,99.077728 
	C216.187103,98.021355 199.158478,100.976089 183.068832,106.384850 
	C166.175964,112.063599 149.953140,119.970398 133.913803,127.870537 
	C123.264473,133.115829 113.692757,140.515442 103.176353,146.076447 
	C96.629364,149.538422 93.463058,153.739059 94.138489,161.329651 
	C94.088509,176.247345 94.026543,191.165039 94.030945,206.082718 
	C94.031128,206.699631 94.653030,207.316360 95.005356,208.846878 
	C95.188240,215.259079 95.245262,221.678101 95.592491,228.081390 
	C95.888550,233.541367 96.454483,238.989822 97.015869,244.431534 
	C97.794922,251.983093 98.675629,259.524200 99.523453,267.068604 
	C100.382698,274.714630 101.254868,282.359222 102.314880,290.420380 
	C102.499077,290.677948 102.739372,290.862549 103.024597,291.649384 
	C103.033501,292.099487 103.042404,292.549591 103.128952,293.784088 
	C104.367569,298.240051 106.241669,302.628204 106.725670,307.164703 
	C108.177414,320.771698 114.388237,332.567810 122.056488,343.092102 
	C133.220428,358.414001 145.303848,373.238129 158.391510,386.940887 
	C173.377350,402.631104 189.775757,416.988281 205.821198,431.639038 
	C209.874664,435.340210 214.612793,438.619171 219.579422,440.919434 
	C227.992142,444.815674 236.497345,443.761963 243.903351,438.089203 
	C249.884491,433.507904 255.595413,428.529205 261.097687,423.376007 
	C275.023682,410.333710 289.157227,397.476990 302.475128,383.831024 
	C317.301880,368.638947 331.552856,352.659393 341.252289,333.643829 
	C346.833618,322.701782 350.301117,310.578674 353.809174,298.717804 
	C356.181122,290.698181 357.252197,282.246674 358.342224,273.914703 
	C358.895752,269.683533 358.204834,265.289581 358.301758,260.474854 
	C358.548218,259.991058 358.794647,259.507233 359.515747,258.570496 
z"/>
<path fill="#150E25" opacity="1.000000" stroke="none" 
	d="
M361.018188,254.010574 
	C361.018188,254.010574 361.032532,254.501694 360.723297,254.814453 
	C359.956421,256.425934 359.498749,257.724701 359.041107,259.023438 
	C358.794647,259.507233 358.548218,259.991058 357.861145,260.693390 
	C356.607513,260.606995 355.794464,260.302063 355.001312,259.741394 
	C355.031494,259.315063 355.041779,259.144409 355.260742,258.775757 
	C355.639557,258.034698 355.809662,257.491699 355.988129,256.484070 
	C356.713013,243.930161 357.429474,231.840897 358.373047,219.442154 
	C358.721863,218.317856 358.949127,217.503128 358.949890,216.688171 
	C358.967133,198.409683 358.977264,180.131119 358.917572,161.852798 
	C358.913483,160.598526 358.351959,159.346039 358.023956,157.892548 
	C357.998199,157.692352 357.991119,157.288742 357.974884,156.936279 
	C357.293640,156.058563 356.628632,155.533310 355.987488,155.003815 
	C356.011322,154.999603 355.998322,155.046280 355.910889,154.738174 
	C354.859467,153.618790 353.895508,152.807495 352.565430,151.983490 
	C350.599304,151.174591 348.939545,150.478531 347.408966,149.565842 
	C338.253571,144.106354 329.127930,138.596939 319.782104,132.846756 
	C318.733459,132.385178 317.895020,132.181122 316.876678,131.688446 
	C314.538208,130.201187 312.484283,128.721970 310.196869,127.868652 
	C306.630615,126.538231 301.802338,126.691483 299.506592,124.299011 
	C296.046967,120.693604 291.914917,119.260612 287.737823,117.927452 
	C276.013062,114.185394 264.057190,111.170006 252.317810,107.470253 
	C240.118851,103.625664 227.614960,104.217804 215.372787,105.559769 
	C199.153931,107.337662 183.549667,112.407516 168.421234,118.537117 
	C146.242615,127.523270 125.650360,139.513809 105.794144,152.771790 
	C103.452332,154.335419 101.848778,157.004700 99.665176,159.477173 
	C99.583664,166.139557 99.739960,172.486191 99.935547,179.297882 
	C99.997932,183.141312 100.021034,186.519684 99.717964,190.177887 
	C99.272591,195.546036 98.993324,200.637039 99.078033,205.721985 
	C99.167458,211.089722 99.604004,216.451660 99.918045,222.258392 
	C100.904198,232.249802 101.871323,241.797943 102.815529,251.348343 
	C103.890732,262.223541 104.945496,273.100800 105.978958,284.257751 
	C106.267570,285.356659 106.586372,286.174957 106.922020,287.410339 
	C106.957077,289.218781 106.975281,290.610107 106.680008,292.144043 
	C105.261459,292.524292 104.156387,292.761993 103.051308,292.999695 
	C103.042404,292.549591 103.033501,292.099487 103.121071,291.158630 
	C102.852150,290.446716 102.486755,290.225555 102.121368,290.004425 
	C101.254868,282.359222 100.382698,274.714630 99.523453,267.068604 
	C98.675629,259.524200 97.794922,251.983093 97.015869,244.431534 
	C96.454483,238.989822 95.888550,233.541367 95.592491,228.081390 
	C95.245262,221.678101 95.188240,215.259079 95.016098,207.926117 
	C95.012459,191.694489 94.998077,176.383606 94.983688,161.072723 
	C93.463058,153.739059 96.629364,149.538422 103.176353,146.076447 
	C113.692757,140.515442 123.264473,133.115829 133.913803,127.870537 
	C149.953140,119.970398 166.175964,112.063599 183.068832,106.384850 
	C199.158478,100.976089 216.187103,98.021355 233.444168,99.077728 
	C249.158722,100.039688 264.500275,102.708626 279.494568,108.042664 
	C302.433319,116.202866 323.739166,127.499306 344.562012,139.848038 
	C350.227783,143.208054 355.585419,147.112900 360.900574,151.017960 
	C362.007996,151.831589 362.821991,153.727203 362.888947,155.165268 
	C363.383423,165.786423 364.198730,176.434341 363.880402,187.042831 
	C363.249512,208.067398 361.954041,229.072037 360.666077,250.599365 
	C360.605316,252.079407 360.811737,253.044998 361.018188,254.010574 
z"/>
<path fill="#151024" opacity="1.000000" stroke="none" 
	d="
M354.981445,259.997101 
	C355.794464,260.302063 356.607513,260.606995 357.748474,260.940552 
	C358.204834,265.289581 358.895752,269.683533 358.342224,273.914703 
	C357.252197,282.246674 356.181122,290.698181 353.809174,298.717804 
	C350.301117,310.578674 346.833618,322.701782 341.252289,333.643829 
	C331.552856,352.659393 317.301880,368.638947 302.475128,383.831024 
	C289.157227,397.476990 275.023682,410.333710 261.097687,423.376007 
	C255.595413,428.529205 249.884491,433.507904 243.903351,438.089203 
	C236.497345,443.761963 227.992142,444.815674 219.579422,440.919434 
	C214.612793,438.619171 209.874664,435.340210 205.821198,431.639038 
	C189.775757,416.988281 173.377350,402.631104 158.391510,386.940887 
	C145.303848,373.238129 133.220428,358.414001 122.056488,343.092102 
	C114.388237,332.567810 108.177414,320.771698 106.725670,307.164703 
	C106.241669,302.628204 104.367569,298.240051 103.090134,293.391907 
	C104.156387,292.761993 105.261459,292.524292 106.932632,292.399536 
	C108.601776,296.595947 109.373886,300.805511 110.872459,304.738220 
	C114.733200,314.870056 118.498314,325.077698 123.146027,334.853577 
	C125.454025,339.708130 129.618912,343.679840 132.971741,348.025604 
	C132.999725,348.000244 132.949066,348.056213 132.966995,348.423889 
	C134.876984,351.578094 136.478073,354.626495 138.710449,357.106689 
	C149.550522,369.150116 160.134018,381.470367 171.623856,392.870728 
	C184.168625,405.317780 197.458298,417.033478 210.737885,428.710114 
	C215.448776,432.852386 220.557480,436.701721 227.512894,437.106567 
	C234.512222,437.513885 240.097229,434.110199 244.884415,430.302368 
	C254.045685,423.015228 262.464996,414.771149 270.971375,406.691681 
	C279.465088,398.624329 287.688568,390.272461 296.309387,381.880035 
	C298.074829,380.154175 299.561493,378.593628 301.341309,376.861816 
	C304.024384,374.244965 306.697144,372.014343 308.750122,369.312775 
	C314.486084,361.764679 320.026794,354.065277 325.527283,346.342072 
	C330.077179,339.953613 334.669617,333.577332 338.824585,326.933838 
	C340.772583,323.819244 342.129669,320.191650 343.068634,316.616455 
	C345.850067,306.025635 348.512329,295.392517 350.791656,284.684479 
	C352.527954,276.527649 353.608948,268.231354 354.981445,259.997101 
z"/>
<path fill="#DEDEED" opacity="1.000000" stroke="none" 
	d="
M94.561096,161.201187 
	C94.998077,176.383606 95.012459,191.694489 95.006058,207.469269 
	C94.653030,207.316360 94.031128,206.699631 94.030945,206.082718 
	C94.026543,191.165039 94.088509,176.247345 94.561096,161.201187 
z"/>
<path fill="#151024" opacity="1.000000" stroke="none" 
	d="
M359.278442,258.796967 
	C359.498749,257.724701 359.956421,256.425934 360.731079,255.059998 
	C360.537323,256.185364 360.026520,257.377930 359.278442,258.796967 
z"/>
<path fill="#151024" opacity="1.000000" stroke="none" 
	d="
M361.018860,253.634491 
	C360.811737,253.044998 360.605316,252.079407 360.640930,251.061493 
	C360.928497,251.758911 360.973999,252.508667 361.018860,253.634491 
z"/>
<path fill="#151024" opacity="1.000000" stroke="none" 
	d="
M102.218124,290.212402 
	C102.486755,290.225555 102.852150,290.446716 103.126656,290.821014 
	C102.739372,290.862549 102.499077,290.677948 102.218124,290.212402 
z"/>
<path fill="#000000" opacity="1.000000" stroke="none" 
	d="
M296.030518,382.045349 
	C287.688568,390.272461 279.465088,398.624329 270.971375,406.691681 
	C262.464996,414.771149 254.045685,423.015228 244.884415,430.302368 
	C240.097229,434.110199 234.512222,437.513885 227.512894,437.106567 
	C220.557480,436.701721 215.448776,432.852386 210.737885,428.710114 
	C197.458298,417.033478 184.168625,405.317780 171.623856,392.870728 
	C160.134018,381.470367 149.550522,369.150116 138.710449,357.106689 
	C136.478073,354.626495 134.876984,351.578094 133.384338,348.405640 
	C135.147552,347.057373 136.511383,346.095062 137.875183,345.132721 
	C137.094482,344.452393 136.313766,343.772064 135.533051,343.091736 
	C134.683426,344.412109 133.811920,345.719330 133.003738,347.064606 
	C132.853302,347.315033 132.957230,347.718262 132.943756,348.050964 
	C129.618912,343.679840 125.454025,339.708130 123.146027,334.853577 
	C118.498314,325.077698 114.733200,314.870056 110.872459,304.738220 
	C109.373886,300.805511 108.601776,296.595947 107.246109,292.256989 
	C106.975281,290.610107 106.957077,289.218781 106.945641,287.077698 
	C106.637985,285.544342 106.323563,284.760742 106.009140,283.977142 
	C104.945496,273.100800 103.890732,262.223541 102.815529,251.348343 
	C101.871323,241.797943 100.904198,232.249802 99.932739,221.809265 
	C99.960236,210.577942 100.002182,200.238007 100.044136,189.898071 
	C100.021034,186.519684 99.997932,183.141312 99.944847,178.847382 
	C99.910904,171.675049 99.906952,165.418243 99.903000,159.161438 
	C101.848778,157.004700 103.452332,154.335419 105.794144,152.771790 
	C125.650360,139.513809 146.242615,127.523270 168.421234,118.537117 
	C183.549667,112.407516 199.153931,107.337662 215.372787,105.559769 
	C227.614960,104.217804 240.118851,103.625664 252.317810,107.470253 
	C264.057190,111.170006 276.013062,114.185394 287.737823,117.927452 
	C291.914917,119.260612 296.046967,120.693604 299.506592,124.299011 
	C301.802338,126.691483 306.630615,126.538231 310.196869,127.868652 
	C312.484283,128.721970 314.538208,130.201187 316.506927,131.696930 
	C315.207672,132.345337 314.098297,132.696655 312.632263,132.982819 
	C305.398468,129.840775 298.602448,126.562828 291.620056,123.746925 
	C285.380432,121.230568 279.081116,118.540077 272.547913,117.145912 
	C261.535187,114.795853 250.720764,111.368912 239.085709,112.032997 
	C231.320740,112.476204 223.331955,109.888466 215.650818,110.677368 
	C206.661560,111.600632 197.913574,114.786087 189.032516,116.869110 
	C174.015961,120.391190 159.388809,125.212601 146.018250,132.846649 
	C134.042603,139.684250 122.651543,147.583206 111.289169,155.428970 
	C108.698586,157.217789 105.745621,160.639755 105.610329,163.438217 
	C105.125816,173.460938 106.054497,183.542206 105.926468,193.594666 
	C105.794365,203.967636 105.527809,203.964249 116.441902,203.998718 
	C142.608841,204.058365 168.304276,204.112091 194.068146,204.494385 
	C196.241043,208.177765 197.802017,207.512741 199.463821,204.091644 
	C231.927963,203.997574 263.928589,203.977219 296.402039,203.973663 
	C313.343231,203.990173 329.814362,203.821106 346.278137,204.095764 
	C351.017639,204.174820 352.212341,202.566162 352.090942,198.090881 
	C351.806885,187.618744 351.621002,177.113922 352.162933,166.662140 
	C352.430237,161.506973 350.449249,158.553314 346.440674,156.212769 
	C345.729431,155.797485 345.083008,155.271805 344.402924,154.802475 
	C336.268433,149.188507 328.133240,143.575531 319.998718,137.555603 
	C319.996887,135.800705 319.994598,134.452499 319.992310,133.104279 
	C329.127930,138.596939 338.253571,144.106354 347.408966,149.565842 
	C348.939545,150.478531 350.599304,151.174591 352.590912,152.338257 
	C353.987732,153.485947 354.993042,154.266113 355.998322,155.046280 
	C355.998322,155.046280 356.011322,154.999603 356.138947,155.271439 
	C356.841431,156.125092 357.416260,156.706924 357.991119,157.288742 
	C357.991119,157.288742 357.998199,157.692352 358.020203,158.331268 
	C357.391632,161.860397 356.648651,164.734467 356.140015,167.649445 
	C355.958893,168.687424 356.218658,169.859497 356.504974,170.908157 
	C356.909668,172.390503 357.956909,173.808533 357.979218,175.265564 
	C358.095215,182.842926 357.973114,190.423950 357.598511,198.066101 
	C353.773743,200.228027 354.447784,201.790009 357.934387,203.418396 
	C358.033600,209.145477 358.089783,214.448547 358.145966,219.751617 
	C357.429474,231.840897 356.713013,243.930161 355.756348,256.666168 
	C355.361481,257.866516 355.206757,258.420135 355.052002,258.973755 
	C355.041779,259.144409 355.031494,259.315063 355.001343,259.741394 
	C353.608948,268.231354 352.527954,276.527649 350.791656,284.684479 
	C348.512329,295.392517 345.850067,306.025635 343.068634,316.616455 
	C342.129669,320.191650 340.772583,323.819244 338.824585,326.933838 
	C334.669617,333.577332 330.077179,339.953613 325.527283,346.342072 
	C320.026794,354.065277 314.486084,361.764679 308.750122,369.312775 
	C306.697144,372.014343 304.024384,374.244965 300.988892,376.701843 
	C298.816650,376.683990 297.290070,376.654877 295.763428,376.625763 
	C295.852478,378.432281 295.941498,380.238831 296.030518,382.045349 
M303.321838,306.957031 
	C303.321838,306.957031 303.320740,306.930573 302.343658,306.963715 
	C281.971436,307.022614 261.599243,307.081543 240.538956,307.170868 
	C240.094666,308.359344 238.981461,309.838135 239.345078,310.675934 
	C240.106155,312.429413 241.492340,314.000946 242.890015,315.374268 
	C251.702301,324.032990 260.689301,332.516785 269.376495,341.297913 
	C271.477203,343.421326 272.806946,343.410522 274.670441,341.498352 
	C278.469482,337.599945 282.207947,333.637787 286.117706,329.853058 
	C291.997437,324.161316 298.002777,318.599304 304.737610,312.987427 
	C309.533875,311.983337 309.887299,311.247009 306.738831,307.458771 
	C305.601715,307.291504 304.464600,307.124268 303.321838,306.957031 
M222.908463,255.991226 
	C223.819290,255.527298 224.730118,255.063354 225.640945,254.599426 
	C224.474838,254.066269 223.308746,253.533112 222.022552,252.230240 
	C221.684875,250.843399 221.347214,249.456558 220.404633,247.492355 
	C204.952118,247.336639 189.499695,247.153854 174.046799,247.091904 
	C173.110031,247.088150 171.631378,247.864365 171.382492,248.605820 
	C171.135452,249.341827 171.890869,250.736923 172.608307,251.422882 
	C178.167145,256.738007 182.979370,262.708984 188.886978,267.795868 
	C197.855225,275.518127 205.608383,284.645142 213.962479,293.091583 
	C216.090149,295.242737 218.537384,297.077881 221.985291,300.046051 
	C221.985291,291.990356 221.985291,285.491638 221.994888,278.062927 
	C222.056412,270.708832 222.117950,263.354767 222.908463,255.991226 
M199.923538,308.026825 
	C204.957245,307.681305 209.990952,307.335785 215.658676,307.139771 
	C216.545166,307.313995 217.431656,307.488220 218.318146,307.662445 
	C218.556442,307.330963 218.794739,306.999451 219.033035,306.667969 
	C214.024841,301.735016 209.016647,296.802094 204.128036,291.173035 
	C203.871414,289.583893 203.614792,287.994751 203.358185,286.405609 
	C202.234940,286.949951 201.111710,287.494293 199.416245,287.677246 
	C194.419571,282.865479 189.483383,277.988434 184.396881,273.273560 
	C182.319229,271.347717 180.288925,271.252563 178.009186,273.642914 
	C172.213470,279.719727 166.070786,285.463898 160.191910,291.463684 
	C155.353134,296.401947 150.693604,301.515869 145.954636,306.551971 
	C146.136200,307.012604 146.317749,307.473236 146.499313,307.933868 
	C154.370605,307.933868 162.241898,307.933868 171.035919,307.984344 
	C179.357132,308.046234 187.678329,308.108093 196.008682,308.899628 
	C196.466736,309.813599 196.924789,310.727600 197.382828,311.641571 
	C197.922058,310.485596 198.461304,309.329620 199.923538,308.026825 
M229.294022,248.604584 
	C229.234192,260.332947 229.174362,272.061340 229.067413,284.589752 
	C229.025421,287.373657 228.867050,290.163055 228.997696,292.938843 
	C229.051270,294.076996 229.728714,295.185791 230.122360,296.307922 
	C230.983337,295.749084 231.974899,295.319153 232.679153,294.605652 
	C234.345856,292.917145 235.806656,291.025208 237.475189,289.338715 
	C241.595978,285.173523 245.786713,281.077484 249.980927,277.731567 
	C250.303421,279.439667 250.625931,281.147736 250.646591,283.463715 
	C246.099304,288.844177 241.552032,294.224609 236.252197,300.020599 
	C237.160400,300.343536 238.066895,300.940521 238.977097,300.946198 
	C246.598953,300.993896 254.221481,300.932983 262.633118,300.936493 
	C269.201721,300.866730 275.777069,300.925659 282.331329,300.582214 
	C283.265991,300.533173 284.795441,298.577667 284.867157,297.430573 
	C285.405273,288.821564 285.632202,280.193451 285.987061,271.572571 
	C286.149445,267.628662 286.400909,263.688477 286.575348,259.744995 
	C286.749420,255.811005 286.877716,251.875000 287.332184,247.249283 
	C287.158356,245.614197 287.072845,243.957642 286.688019,242.373795 
	C286.644684,242.195419 284.119934,242.291260 284.085388,242.491364 
	C283.802734,244.127197 283.832947,245.817856 283.786774,247.492371 
	C283.782654,247.640610 283.911377,247.792511 283.863922,248.641586 
	C280.636017,252.535172 277.560608,256.568909 274.142609,260.287811 
	C269.592407,265.238495 264.879791,270.053955 260.003876,274.681946 
	C258.695038,275.924194 256.539825,276.274719 253.980835,277.014465 
	C252.638382,276.992798 251.295944,276.971130 249.994812,276.238342 
	C253.709442,271.496765 257.205475,266.557892 261.231537,262.097412 
	C263.224365,259.889557 262.837372,258.652924 261.265839,256.682495 
	C258.725952,253.497894 256.447052,250.105103 254.406372,246.248856 
	C254.550140,244.714081 254.693909,243.179291 254.837677,241.644516 
	C253.564392,242.341354 252.291107,243.038193 250.413803,243.509537 
	C245.723022,238.266479 241.093201,232.966888 236.311493,227.808105 
	C234.392365,225.737625 232.139389,223.976578 229.857849,221.387177 
	C228.220566,220.888763 226.583282,220.390366 224.946014,219.891953 
	C225.402985,221.766525 225.535446,223.823257 226.445129,225.443680 
	C226.947968,226.339401 228.753159,226.503983 229.994659,227.933167 
	C229.989044,234.664886 229.983429,241.396591 229.294022,248.604584 
M267.416260,347.622009 
	C256.601105,336.855560 245.785980,326.089111 234.970840,315.322662 
	C234.327805,315.545776 233.684769,315.768860 233.041733,315.991974 
	C233.041733,321.017670 233.041733,326.043396 233.005066,331.997742 
	C233.011230,341.658356 233.017395,351.318939 232.983292,361.808472 
	C232.677612,365.243896 234.632904,366.036713 237.608078,366.024139 
	C251.765396,365.964294 265.923157,366.006500 280.080566,365.958984 
	C281.259979,365.955048 282.438080,365.553833 284.348145,365.202759 
	C280.494598,361.052429 277.238373,357.545441 274.086334,353.352020 
	C275.513702,350.312683 273.637146,348.569794 271.372986,347.369202 
	C270.576660,346.946930 269.149323,347.714630 267.416260,347.622009 
M168.157288,316.618439 
	C168.106506,329.737091 168.042236,342.855774 168.045944,355.974426 
	C168.046112,356.611603 168.643066,357.248627 168.991684,358.742615 
	C168.804901,361.299438 168.618118,363.856262 168.431351,366.413086 
	C168.871017,366.730042 169.310699,367.046997 169.750366,367.363953 
	C186.194504,350.096588 202.638641,332.829193 219.644760,314.971680 
	C208.801804,314.971680 199.400787,314.971680 189.969986,314.234436 
	C188.945587,313.266815 187.921188,312.299225 186.896790,311.331604 
	C186.264740,312.878021 185.632690,314.424408 184.096466,315.989471 
	C179.007568,316.032440 173.918655,316.075439 168.157288,316.618439 
M226.993561,340.774170 
	C227.316864,333.810303 227.716995,326.848297 227.884583,319.880676 
	C227.911163,318.775208 226.890366,317.644531 226.353821,316.525513 
	C225.403824,317.256622 224.311722,317.862549 223.533920,318.745361 
	C222.001251,320.484955 220.750565,322.475739 219.194809,324.191772 
	C209.837219,334.513428 200.426193,344.786652 191.092728,355.010681 
	C203.714157,370.835266 221.577637,388.104523 226.975433,389.398376 
	C226.975433,373.422699 226.975433,357.571808 226.993561,340.774170 
M224.790268,299.262115 
	C220.428391,303.153381 219.828568,308.080933 223.291321,311.160278 
	C226.385223,313.911621 229.214737,312.978363 232.266479,310.936890 
	C235.711411,308.632416 235.322510,305.780670 233.931122,302.669586 
	C232.254242,298.920074 229.488663,297.523102 224.790268,299.262115 
M322.089447,259.506531 
	C323.386932,260.191132 324.684387,260.875763 325.981873,261.560394 
	C326.165283,260.365753 326.348694,259.171082 326.532104,257.976440 
	C325.076477,258.227264 323.620819,258.478119 322.089447,259.506531 
M158.834595,257.279083 
	C157.807632,256.240814 156.780655,255.202545 155.753662,254.164276 
	C155.227615,255.208527 154.701569,256.252777 154.175522,257.297028 
	C155.635040,257.532623 157.094543,257.768188 158.834595,257.279083 
M191.720963,405.834564 
	C192.759216,404.807617 193.797485,403.780640 194.835739,402.753662 
	C193.791489,402.227631 192.747238,401.701599 191.702988,401.175568 
	C191.467438,402.635071 191.231873,404.094604 191.720963,405.834564 
M227.834595,429.279114 
	C226.807617,428.240814 225.780624,427.202545 224.753647,426.164246 
	C224.227600,427.208496 223.701553,428.252777 223.175507,429.297028 
	C224.635025,429.532593 226.094559,429.768188 227.834595,429.279114 
M211.995804,412.555756 
	C211.765610,411.096405 211.535400,409.637054 211.305222,408.177734 
	C210.258514,408.699799 209.211807,409.221863 208.165100,409.743896 
	C209.199585,410.773804 210.234070,411.803680 211.995804,412.555756 
M119.004242,230.444229 
	C119.234436,231.903564 119.464638,233.362915 119.694832,234.822250 
	C120.741524,234.300186 121.788216,233.778137 122.834908,233.256088 
	C121.800423,232.226212 120.765938,231.196320 119.004242,230.444229 
M185.720947,382.834564 
	C186.759201,381.807587 187.797470,380.780609 188.835739,379.753662 
	C187.791489,379.227631 186.747223,378.701599 185.702972,378.175568 
	C185.467422,379.635071 185.231857,381.094604 185.720947,382.834564 
M237.493546,372.089447 
	C236.808884,373.386932 236.124222,374.684418 235.439560,375.981934 
	C236.634216,376.165314 237.828888,376.348724 239.023560,376.532104 
	C238.772736,375.076447 238.521896,373.620819 237.493546,372.089447 
M255.798523,377.332367 
	C255.551758,378.630585 255.304977,379.928802 255.058212,381.227020 
	C256.174164,381.051270 257.290131,380.875519 258.406097,380.699738 
	C257.771240,379.539551 257.136353,378.379333 255.798523,377.332367 
M173.834244,379.665527 
	C172.637131,380.226013 171.440018,380.786530 170.242905,381.347015 
	C171.044434,382.150665 171.845963,382.954285 172.647461,383.757935 
	C173.210403,382.561829 173.773346,381.365723 173.834244,379.665527 
M260.665497,389.165741 
	C261.226013,390.362854 261.786530,391.559937 262.347076,392.757080 
	C263.150696,391.955566 263.954315,391.154053 264.757935,390.352509 
	C263.561829,389.789581 262.365753,389.226654 260.665497,389.165741 
M314.665497,297.165741 
	C315.226013,298.362823 315.786530,299.559937 316.347046,300.757050 
	C317.150665,299.955536 317.954285,299.154022 318.757935,298.352509 
	C317.561829,297.789551 316.365753,297.226624 314.665497,297.165741 
M329.665497,293.165741 
	C330.226013,294.362854 330.786530,295.559937 331.347076,296.757080 
	C332.150696,295.955566 332.954315,295.154053 333.757935,294.352509 
	C332.561829,293.789551 331.365753,293.226624 329.665497,293.165741 
M293.201935,285.332275 
	C292.237122,286.238739 291.272339,287.145233 290.307526,288.051697 
	C291.317200,288.566864 292.326843,289.082031 293.336517,289.597198 
	C293.501862,288.286499 293.667206,286.975769 293.201935,285.332275 
M338.201935,285.332275 
	C337.237122,286.238739 336.272339,287.145233 335.307526,288.051697 
	C336.317200,288.566864 337.326843,289.082031 338.336517,289.597198 
	C338.501862,288.286499 338.667206,286.975769 338.201935,285.332275 
M114.667656,286.798584 
	C113.369431,286.551788 112.071213,286.304993 110.772987,286.058197 
	C110.948723,287.174133 111.124458,288.290100 111.300201,289.406036 
	C112.460411,288.771210 113.620628,288.136383 114.667656,286.798584 
M222.798050,414.667725 
	C223.762848,413.761261 224.727646,412.854797 225.692459,411.948334 
	C224.682800,411.433136 223.673141,410.917938 222.663483,410.402740 
	C222.498138,411.713470 222.332794,413.024170 222.798050,414.667725 
M308.332275,283.798065 
	C309.238739,284.762878 310.145203,285.727692 311.051697,286.692474 
	C311.566864,285.682800 312.082031,284.673157 312.597198,283.663483 
	C311.286499,283.498138 309.975769,283.332794 308.332275,283.798065 
M157.501831,348.781586 
	C158.136826,347.621735 158.771820,346.461914 159.406830,345.302094 
	C158.291229,345.125366 157.175629,344.948639 156.060028,344.771912 
	C156.306747,346.069977 156.553467,347.368042 157.501831,348.781586 
M207.798569,213.332352 
	C207.551788,214.630569 207.305023,215.928787 207.058243,217.227005 
	C208.174194,217.051270 209.290161,216.875534 210.406113,216.699799 
	C209.771255,215.539597 209.136398,214.379379 207.798569,213.332352 
M291.537109,213.902618 
	C290.856750,213.890747 290.176422,213.878876 289.496063,213.867004 
	C289.643646,214.426819 289.791199,214.986633 289.938782,215.546432 
	C290.522003,215.198669 291.105225,214.850906 291.537109,213.902618 
M148.902618,349.462891 
	C148.890747,350.143250 148.878876,350.823578 148.867004,351.503906 
	C149.426819,351.356354 149.986633,351.208771 150.546448,351.061218 
	C150.198685,350.477997 149.850922,349.894775 148.902618,349.462891 
M326.497009,233.690506 
	C326.847717,233.109344 327.198425,232.528198 327.549133,231.947037 
	C326.990356,231.795319 326.431610,231.643585 325.872803,231.491867 
	C325.881378,232.172821 325.889954,232.853775 326.497009,233.690506 
M320.502991,236.309479 
	C320.152283,236.890640 319.801575,237.471786 319.450867,238.052948 
	C320.009644,238.204681 320.568390,238.356400 321.127197,238.508133 
	C321.118622,237.827179 321.110046,237.146225 320.502991,236.309479 
M330.529114,330.105743 
	C330.203705,329.510956 329.878326,328.916168 329.552948,328.321381 
	C329.141357,328.723328 328.729767,329.125305 328.318176,329.527252 
	C328.907166,329.864227 329.496185,330.201172 330.529114,330.105743 
M111.097359,245.537140 
	C111.109253,244.856796 111.121140,244.176468 111.133026,243.496109 
	C110.573196,243.643661 110.013367,243.791199 109.453552,243.938766 
	C109.801308,244.521988 110.149063,245.105209 111.097359,245.537140 
M136.470901,208.894287 
	C136.796295,209.489044 137.121704,210.083801 137.447098,210.678558 
	C137.858658,210.276611 138.270218,209.874649 138.681778,209.472702 
	C138.092773,209.135742 137.503784,208.798782 136.470901,208.894287 
M268.309509,393.497040 
	C268.890686,393.847717 269.471832,394.198425 270.053009,394.549103 
	C270.204712,393.990326 270.356415,393.431519 270.508087,392.872742 
	C269.827148,392.881317 269.146179,392.889893 268.309509,393.497040 
M184.894196,401.529114 
	C185.488983,401.203735 186.083755,400.878357 186.678543,400.552979 
	C186.276611,400.141388 185.874664,399.729767 185.472733,399.318176 
	C185.135757,399.907166 184.798798,400.496185 184.894196,401.529114 
M156.105804,272.470886 
	C155.511017,272.796265 154.916229,273.121643 154.321457,273.447021 
	C154.723389,273.858612 155.125336,274.270233 155.527267,274.681824 
	C155.864243,274.092834 156.201218,273.503815 156.105804,272.470886 
M108.529091,253.105759 
	C108.203697,252.510986 107.878304,251.916214 107.552910,251.321442 
	C107.141342,251.723389 106.729774,252.125351 106.318207,252.527298 
	C106.907204,252.864258 107.496201,253.201233 108.529091,253.105759 
z"/>
<path fill="#353141" opacity="1.000000" stroke="none" 
	d="
M357.933960,198.003693 
	C357.973114,190.423950 358.095215,182.842926 357.979218,175.265564 
	C357.956909,173.808533 356.909668,172.390503 356.504974,170.908157 
	C356.218658,169.859497 355.958893,168.687424 356.140015,167.649445 
	C356.648651,164.734467 357.391632,161.860397 358.045959,158.531464 
	C358.351959,159.346039 358.913483,160.598526 358.917572,161.852798 
	C358.977264,180.131119 358.967133,198.409683 358.949890,216.688171 
	C358.949127,217.503128 358.721863,218.317856 358.373047,219.442154 
	C358.089783,214.448547 358.033600,209.145477 357.981659,203.004349 
	C357.968597,200.778763 357.951263,199.391220 357.933960,198.003693 
z"/>
<path fill="#353141" opacity="1.000000" stroke="none" 
	d="
M99.717964,190.177887 
	C100.002182,200.238007 99.960236,210.577942 99.903595,221.367004 
	C99.604004,216.451660 99.167458,211.089722 99.078033,205.721985 
	C98.993324,200.637039 99.272591,195.546036 99.717964,190.177887 
z"/>
<path fill="#000000" opacity="1.000000" stroke="none" 
	d="
M312.988892,133.047974 
	C314.098297,132.696655 315.207672,132.345337 316.686829,131.985550 
	C317.895020,132.181122 318.733459,132.385178 319.782104,132.846756 
	C319.994598,134.452499 319.996887,135.800705 319.732483,137.357132 
	C317.306793,136.059540 315.147858,134.553757 312.988892,133.047974 
z"/>
<path fill="#353141" opacity="1.000000" stroke="none" 
	d="
M99.665176,159.477173 
	C99.906952,165.418243 99.910904,171.675049 99.905563,178.382339 
	C99.739960,172.486191 99.583664,166.139557 99.665176,159.477173 
z"/>
<path fill="#353141" opacity="1.000000" stroke="none" 
	d="
M355.910889,154.738174 
	C354.993042,154.266113 353.987732,153.485947 352.956970,152.350998 
	C353.895508,152.807495 354.859467,153.618790 355.910889,154.738174 
z"/>
<path fill="#151024" opacity="1.000000" stroke="none" 
	d="
M105.978958,284.257751 
	C106.323563,284.760742 106.637985,285.544342 106.928787,286.660614 
	C106.586372,286.174957 106.267570,285.356659 105.978958,284.257751 
z"/>
<path fill="#353141" opacity="1.000000" stroke="none" 
	d="
M357.974884,156.936279 
	C357.416260,156.706924 356.841431,156.125092 356.115112,155.275665 
	C356.628632,155.533310 357.293640,156.058563 357.974884,156.936279 
z"/>
<path fill="#151024" opacity="1.000000" stroke="none" 
	d="
M355.260742,258.775757 
	C355.206757,258.420135 355.361481,257.866516 355.747986,257.130798 
	C355.809662,257.491699 355.639557,258.034698 355.260742,258.775757 
z"/>
<path fill="#000000" opacity="1.000000" stroke="none" 
	d="
M296.309357,381.880035 
	C295.941498,380.238831 295.852478,378.432281 295.763428,376.625763 
	C297.290070,376.654877 298.816650,376.683990 300.695679,376.873108 
	C299.561493,378.593628 298.074829,380.154175 296.309357,381.880035 
z"/>
<path fill="#140A28" opacity="1.000000" stroke="none" 
	d="
M312.632263,132.982819 
	C315.147858,134.553757 317.306793,136.059540 319.731995,137.763824 
	C328.133240,143.575531 336.268433,149.188507 344.402924,154.802475 
	C345.083008,155.271805 345.729431,155.797485 346.440674,156.212769 
	C350.449249,158.553314 352.430237,161.506973 352.162933,166.662140 
	C351.621002,177.113922 351.806885,187.618744 352.090942,198.090881 
	C352.212341,202.566162 351.017639,204.174820 346.278137,204.095764 
	C329.814362,203.821106 313.343231,203.990173 296.212097,203.586609 
	C295.221191,203.131866 294.893005,203.036514 294.564850,203.036438 
	C236.192200,203.021454 177.819550,203.007568 119.446930,203.046036 
	C118.287880,203.046799 117.129242,203.663483 115.970413,203.992813 
	C105.527809,203.964249 105.794365,203.967636 105.926468,193.594666 
	C106.054497,183.542206 105.125816,173.460938 105.610329,163.438217 
	C105.745621,160.639755 108.698586,157.217789 111.289169,155.428970 
	C122.651543,147.583206 134.042603,139.684250 146.018250,132.846649 
	C159.388809,125.212601 174.015961,120.391190 189.032516,116.869110 
	C197.913574,114.786087 206.661560,111.600632 215.650818,110.677368 
	C223.331955,109.888466 231.320740,112.476204 239.085709,112.032997 
	C250.720764,111.368912 261.535187,114.795853 272.547913,117.145912 
	C279.081116,118.540077 285.380432,121.230568 291.620056,123.746925 
	C298.602448,126.562828 305.398468,129.840775 312.632263,132.982819 
M250.056503,174.441025 
	C250.219406,174.643463 250.382309,174.845917 250.545197,175.048370 
	C250.682968,174.673264 250.820724,174.298157 251.223022,173.540588 
	C251.430496,173.304092 251.676468,173.118698 252.657944,172.895554 
	C254.625839,173.583893 256.616211,174.902847 258.557129,174.833679 
	C263.061798,174.673187 265.540497,176.034332 265.233032,180.910431 
	C265.121246,182.683273 265.124695,184.483994 265.311127,186.247070 
	C265.417694,187.254776 266.213409,189.094406 266.334595,189.064880 
	C270.554932,188.036316 273.479553,190.159668 276.365479,192.739578 
	C276.731079,193.066391 278.097351,192.273865 279.500000,192.000275 
	C279.666656,191.999985 279.833344,191.999680 280.675934,192.299606 
	C281.796478,192.363770 282.936249,192.593063 284.034393,192.465027 
	C290.694458,191.688629 297.345032,190.830704 304.205292,190.255844 
	C304.205292,190.255844 304.652161,190.319366 304.652161,190.319366 
	C304.652161,190.319366 304.999634,189.992157 305.360565,189.636276 
	C307.340607,188.454254 309.320679,187.272232 311.300720,186.090225 
	C311.158661,185.391953 311.016602,184.693695 310.874573,183.995438 
	C308.915955,183.664032 306.957367,183.332626 304.332153,183.000351 
	C303.887695,182.999817 303.443237,182.999298 302.312012,182.693512 
	C300.207184,182.794220 298.102386,182.894913 295.331726,182.998245 
	C294.887817,182.999435 294.443909,183.000641 293.227142,182.969955 
	C284.470306,183.028732 276.570374,179.694977 268.350037,176.627472 
	C270.408386,175.313110 273.125946,173.848251 274.452637,174.659088 
	C279.075897,177.484756 283.416443,175.154236 287.781097,174.721481 
	C293.669891,174.137604 299.456024,174.949799 305.587738,173.017059 
	C310.288177,171.535477 316.561096,175.042679 322.245880,176.356796 
	C322.449707,175.989456 322.623108,175.529648 322.918457,175.169968 
	C324.196503,173.613541 325.510193,172.086380 326.810944,170.548599 
	C327.991180,171.681473 329.096588,172.910568 330.380951,173.909592 
	C331.100952,174.469620 332.117218,174.648773 333.088837,175.186432 
	C333.088837,175.186432 333.333344,175.202728 333.333344,175.202728 
	C333.333344,175.202728 333.000000,175.000015 333.175964,174.300980 
	C334.714447,168.116577 336.252960,161.932190 337.791443,155.747787 
	C337.570526,155.233643 337.349640,154.719482 337.128723,154.205322 
	C333.828796,158.573135 330.461792,161.374985 326.683014,156.134140 
	C326.592499,156.008621 326.048218,156.276535 325.730560,156.237915 
	C323.310150,155.943665 320.779236,155.966843 318.503021,155.219955 
	C315.278748,154.161972 312.624390,154.220978 309.593811,156.115128 
	C307.927917,157.156326 304.648315,157.638062 303.230133,156.684952 
	C298.410645,153.445877 293.935822,155.267075 289.430603,156.077164 
	C289.567505,158.928207 289.956879,161.402115 289.716034,163.813049 
	C289.525238,165.723099 288.923187,168.860840 287.866547,169.153580 
	C285.611176,169.778473 282.921295,169.029617 280.454346,168.591064 
	C279.589935,168.437393 278.857117,167.543533 278.034424,166.244278 
	C278.052643,165.501007 278.070862,164.757736 278.576080,163.516708 
	C280.294128,159.584030 277.948944,155.519394 274.166931,155.753418 
	C272.083923,155.882309 269.871887,156.201187 267.916992,155.683304 
	C262.767487,154.319077 257.952484,153.398117 255.517609,159.157059 
	C253.772018,157.325958 252.336700,155.820343 250.901382,154.314713 
	C250.332703,155.608566 249.764023,156.902420 249.416077,158.859497 
	C249.148758,162.957642 248.786682,167.053452 248.685501,171.155685 
	C248.662262,172.097565 249.535751,173.061554 250.056503,174.441025 
M152.899887,172.010239 
	C154.838715,172.666718 156.802063,173.260361 158.706818,174.004105 
	C159.786499,174.425705 160.770081,175.093414 161.796951,175.650269 
	C162.300888,174.500122 163.209900,173.358429 163.234100,172.198273 
	C163.311981,168.466202 163.295654,164.698349 162.835266,161.004181 
	C162.628220,159.342850 161.282516,157.823425 160.453476,156.239609 
	C159.634384,156.791077 158.815292,157.342529 157.126358,157.953079 
	C155.101715,158.016403 153.077072,158.079727 150.680481,157.676590 
	C146.734177,156.798645 142.467331,154.527237 138.911148,155.345245 
	C132.367752,156.850388 125.390228,151.800598 118.988007,157.660507 
	C116.755020,159.704330 115.296036,160.232254 117.000000,163.500671 
	C117.000000,163.500671 117.000000,163.999390 116.743713,164.203613 
	C116.570900,164.531860 116.656334,164.797119 117.008614,165.837189 
	C117.359413,168.452927 117.456810,171.141312 118.176285,173.651382 
	C118.498131,174.774246 119.972977,176.084503 121.104012,176.281967 
	C121.905937,176.421982 123.008621,174.839355 124.483643,174.004166 
	C124.652588,173.999268 124.821533,173.994385 125.631371,174.277603 
	C130.433441,176.271088 128.064072,170.947998 130.253632,170.406845 
	C130.459671,170.658066 130.706802,170.858627 131.107376,171.689301 
	C132.514191,174.711746 134.173035,176.748840 137.891129,174.389862 
	C138.798950,173.813889 140.443665,174.523270 141.720169,174.379913 
	C144.825592,174.031204 147.913757,173.528839 151.426926,172.788940 
	C151.649750,172.531021 151.872559,172.273102 152.899887,172.010239 
M157.725067,191.653885 
	C161.492432,189.740936 165.155014,189.905457 169.390900,190.669876 
	C175.235260,191.724609 181.080490,188.191650 187.537888,191.242218 
	C191.671814,193.195129 195.076324,189.100662 195.373642,183.734009 
	C194.966263,183.542145 194.549789,183.238281 194.090790,183.146042 
	C187.663010,181.854431 180.696167,185.658401 174.596252,181.089966 
	C174.390549,180.935898 173.947403,181.097015 173.615082,181.114151 
	C165.863861,181.513702 158.088837,181.683655 150.378998,182.482712 
	C148.555603,182.671661 146.951324,184.975052 145.246246,186.305786 
	C146.809235,187.470795 148.224243,189.001526 149.972397,189.708893 
	C152.193008,190.607437 154.683807,190.838242 157.725067,191.653885 
M203.021439,189.351746 
	C205.792816,189.805984 208.549057,190.448257 211.338928,190.673035 
	C216.276550,191.070862 220.845444,188.780426 226.304047,190.540298 
	C232.708298,192.605072 235.448868,189.437820 234.632721,183.499054 
	C225.074966,181.404068 214.661285,185.713699 205.455399,180.078293 
	C202.138428,182.134918 198.862885,184.306091 203.021439,189.351746 
M256.635742,189.640106 
	C260.418793,190.380646 260.654053,187.190216 260.668823,185.142502 
	C260.677612,183.921310 258.529327,181.770432 257.179016,181.624298 
	C253.055237,181.178009 248.769791,181.044144 244.711212,181.742172 
	C243.022293,182.032639 241.632217,184.651611 240.376846,186.405457 
	C240.104813,186.785538 240.770203,188.264542 241.386475,188.779266 
	C244.232071,191.156006 252.614716,191.452835 256.635742,189.640106 
M222.991333,167.452682 
	C226.710541,166.218704 230.450684,164.908020 233.123306,169.966599 
	C232.906418,166.138702 232.689545,162.310806 232.472672,158.482895 
	C230.047455,165.292084 230.047455,165.292084 222.565506,164.226395 
	C222.058975,162.319565 221.552444,160.412750 221.045898,158.505920 
	C220.866837,158.583923 220.687759,158.661942 220.508698,158.739944 
	C220.508698,163.231949 220.508698,167.723969 220.508698,172.215973 
	C220.840042,172.215576 221.171402,172.215179 221.502747,172.214783 
	C221.819199,170.811295 222.135635,169.407822 222.991333,167.452682 
M186.992126,168.250763 
	C187.466599,169.863358 187.941055,171.475967 188.415512,173.088562 
	C188.905533,172.939224 189.395554,172.789886 189.885574,172.640549 
	C190.088913,170.924530 190.292236,169.208527 190.479874,167.625046 
	C192.600113,167.076599 194.342377,166.625916 195.942673,166.211960 
	C193.435425,164.956284 189.648651,164.193665 189.325195,162.687363 
	C188.314148,157.979019 193.134140,159.513504 196.447571,158.261429 
	C192.697601,158.261429 189.942764,158.261429 186.987396,158.261429 
	C186.987396,161.461258 186.987396,164.408920 186.992126,168.250763 
M178.019531,163.725296 
	C178.858521,161.784256 179.697510,159.843216 180.415894,158.181183 
	C178.283920,158.181183 175.317780,158.181183 171.845276,158.181183 
	C179.777557,160.947357 173.578064,168.125244 178.011749,172.137039 
	C178.011749,169.632599 178.011749,167.128174 178.019531,163.725296 
M238.172455,171.453064 
	C238.778839,170.895889 239.886658,170.359238 239.910416,169.778229 
	C240.067474,165.937943 239.991608,162.088120 239.991608,157.686646 
	C236.577240,161.873184 238.574356,166.495392 238.172455,171.453064 
z"/>
<path fill="#140920" opacity="1.000000" stroke="none" 
	d="
M221.985291,278.992920 
	C221.985291,285.491638 221.985291,291.990356 221.985291,300.046051 
	C218.537384,297.077881 216.090149,295.242737 213.962479,293.091583 
	C205.608383,284.645142 197.855225,275.518127 188.886978,267.795868 
	C182.979370,262.708984 178.167145,256.738007 172.608307,251.422882 
	C171.890869,250.736923 171.135452,249.341827 171.382492,248.605820 
	C171.631378,247.864365 173.110031,247.088150 174.046799,247.091904 
	C189.499695,247.153854 204.952118,247.336639 220.716217,248.244629 
	C221.017426,256.801453 220.935562,264.606964 221.042389,272.409882 
	C221.072479,274.608124 221.655762,276.798798 221.985291,278.992920 
z"/>
<path fill="#140923" opacity="1.000000" stroke="none" 
	d="
M226.984497,341.247559 
	C226.975433,357.571808 226.975433,373.422699 226.975433,389.398376 
	C221.577637,388.104523 203.714157,370.835266 191.092728,355.010681 
	C200.426193,344.786652 209.837219,334.513428 219.194809,324.191772 
	C220.750565,322.475739 222.001251,320.484955 223.533920,318.745361 
	C224.311722,317.862549 225.403824,317.256622 226.353821,316.525513 
	C226.890366,317.644531 227.911163,318.775208 227.884583,319.880676 
	C227.716995,326.848297 227.316864,333.810303 226.984497,341.247559 
z"/>
<path fill="#130823" opacity="1.000000" stroke="none" 
	d="
M204.008484,291.869141 
	C209.016647,296.802094 214.024841,301.735016 219.033035,306.667969 
	C218.794739,306.999451 218.556442,307.330963 218.318146,307.662445 
	C217.431656,307.488220 216.545166,307.313995 214.871582,307.066772 
	C201.385147,306.951477 188.685806,306.909210 175.882690,306.753662 
	C175.470047,306.490021 175.214523,306.568176 174.631378,306.945068 
	C172.871353,307.321533 171.492264,307.627686 170.113190,307.933868 
	C162.241898,307.933868 154.370605,307.933868 146.499313,307.933868 
	C146.317749,307.473236 146.136200,307.012604 145.954636,306.551971 
	C150.693604,301.515869 155.353134,296.401947 160.191910,291.463684 
	C166.070786,285.463898 172.213470,279.719727 178.009186,273.642914 
	C180.288925,271.252563 182.319229,271.347717 184.396881,273.273560 
	C189.483383,277.988434 194.419571,282.865479 199.913300,288.091187 
	C201.609726,289.626434 202.809113,290.747772 204.008484,291.869141 
z"/>
<path fill="#130723" opacity="1.000000" stroke="none" 
	d="
M189.999771,314.971680 
	C199.400787,314.971680 208.801804,314.971680 219.644760,314.971680 
	C202.638641,332.829193 186.194504,350.096588 169.750366,367.363953 
	C169.310699,367.046997 168.871017,366.730042 168.431351,366.413086 
	C168.618118,363.856262 168.804901,361.299438 168.986938,357.852783 
	C168.931396,343.348083 168.880585,329.733246 168.829758,316.118408 
	C173.918655,316.075439 179.007568,316.032440 184.889008,315.844971 
	C187.120956,315.457550 188.560364,315.214600 189.999771,314.971680 
z"/>
<path fill="#140823" opacity="1.000000" stroke="none" 
	d="
M233.041718,331.069092 
	C233.041733,326.043396 233.041733,321.017670 233.041733,315.991974 
	C233.684769,315.768860 234.327805,315.545776 234.970840,315.322662 
	C245.785980,326.089111 256.601105,336.855560 267.870483,348.077576 
	C270.210541,350.368225 272.096375,352.203339 273.982178,354.038452 
	C277.238373,357.545441 280.494598,361.052429 284.348145,365.202759 
	C282.438080,365.553833 281.259979,365.955048 280.080566,365.958984 
	C265.923157,366.006500 251.765396,365.964294 237.608078,366.024139 
	C234.632904,366.036713 232.677612,365.243896 233.382401,361.186707 
	C233.846344,353.079132 233.988831,345.592773 233.930344,338.107971 
	C233.911987,335.759521 233.353165,333.415253 233.041718,331.069092 
z"/>
<path fill="#140823" opacity="1.000000" stroke="none" 
	d="
M287.026093,247.939880 
	C286.877716,251.875000 286.749420,255.811005 286.575348,259.744995 
	C286.400909,263.688477 286.149445,267.628662 285.987061,271.572571 
	C285.632202,280.193451 285.405273,288.821564 284.867157,297.430573 
	C284.795441,298.577667 283.265991,300.533173 282.331329,300.582214 
	C275.777069,300.925659 269.201721,300.866730 262.030945,300.555054 
	C253.287415,299.984131 245.146088,299.794586 237.004761,299.605042 
	C241.552032,294.224609 246.099304,288.844177 251.139221,283.136841 
	C254.036606,281.623291 256.787903,280.625092 254.773132,277.034576 
	C256.539825,276.274719 258.695038,275.924194 260.003876,274.681946 
	C264.879791,270.053955 269.592407,265.238495 274.142609,260.287811 
	C277.560608,256.568909 280.636017,252.535172 284.302277,248.296051 
	C285.502441,247.946960 286.264282,247.943420 287.026093,247.939880 
z"/>
<path fill="#140924" opacity="1.000000" stroke="none" 
	d="
M249.949326,276.953644 
	C245.786713,281.077484 241.595978,285.173523 237.475189,289.338715 
	C235.806656,291.025208 234.345856,292.917145 232.679153,294.605652 
	C231.974899,295.319153 230.983337,295.749084 230.122360,296.307922 
	C229.728714,295.185791 229.051270,294.076996 228.997696,292.938843 
	C228.867050,290.163055 229.025421,287.373657 229.375793,283.905823 
	C229.782059,271.524017 229.879944,259.826172 229.977814,248.128311 
	C229.983429,241.396591 229.989044,234.664886 229.992828,227.054031 
	C230.006775,224.808167 230.022552,223.441422 230.038345,222.074692 
	C232.139389,223.976578 234.392365,225.737625 236.311493,227.808105 
	C241.093201,232.966888 245.723022,238.266479 250.981903,243.807861 
	C252.385971,245.004196 253.221954,245.902222 254.057922,246.800247 
	C256.447052,250.105103 258.725952,253.497894 261.265839,256.682495 
	C262.837372,258.652924 263.224365,259.889557 261.231537,262.097412 
	C257.205475,266.557892 253.709442,271.496765 249.997009,276.619171 
	C249.999207,277.000000 249.949326,276.953644 249.949326,276.953644 
z"/>
<path fill="#150924" opacity="1.000000" stroke="none" 
	d="
M303.954712,312.982117 
	C298.002777,318.599304 291.997437,324.161316 286.117706,329.853058 
	C282.207947,333.637787 278.469482,337.599945 274.670441,341.498352 
	C272.806946,343.410522 271.477203,343.421326 269.376495,341.297913 
	C260.689301,332.516785 251.702301,324.032990 242.890015,315.374268 
	C241.492340,314.000946 240.106155,312.429413 239.345078,310.675934 
	C238.981461,309.838135 240.094666,308.359344 241.191437,307.396057 
	C262.408569,307.730774 282.973206,307.840271 303.523254,307.943817 
	C303.508667,307.937866 303.483673,307.950928 303.841766,307.973816 
	C304.835236,308.280121 305.470581,308.563507 305.845642,309.066589 
	C305.041779,310.518219 304.498260,311.750183 303.954712,312.982117 
z"/>
<path fill="#BFB9C3" opacity="1.000000" stroke="none" 
	d="
M116.441902,203.998718 
	C117.129242,203.663483 118.287880,203.046799 119.446930,203.046036 
	C177.819550,203.007568 236.192200,203.021454 294.564850,203.036438 
	C294.893005,203.036514 295.221191,203.131866 295.739288,203.569794 
	C263.928589,203.977219 231.927963,203.997574 199.051392,204.018097 
	C196.783554,204.067444 195.391647,204.116638 193.999725,204.165833 
	C168.304276,204.112091 142.608841,204.058365 116.441902,203.998718 
z"/>
<path fill="#120A22" opacity="1.000000" stroke="none" 
	d="
M225.147491,299.139832 
	C229.488663,297.523102 232.254242,298.920074 233.931122,302.669586 
	C235.322510,305.780670 235.711411,308.632416 232.266479,310.936890 
	C229.214737,312.978363 226.385223,313.911621 223.291321,311.160278 
	C219.828568,308.080933 220.428391,303.153381 225.147491,299.139832 
z"/>
<path fill="#4C4955" opacity="1.000000" stroke="none" 
	d="
M303.537872,307.949768 
	C282.973206,307.840271 262.408569,307.730774 241.535461,307.380859 
	C261.599243,307.081543 281.971436,307.022614 302.928558,307.193054 
	C303.521606,307.598175 303.529724,307.773956 303.537872,307.949768 
z"/>
<path fill="#BFB9C3" opacity="1.000000" stroke="none" 
	d="
M170.574554,307.959106 
	C171.492264,307.627686 172.871353,307.321533 174.875397,307.002075 
	C175.662399,306.948212 175.824417,306.907593 175.986450,306.866943 
	C188.685806,306.909210 201.385147,306.951477 214.554581,306.992004 
	C209.990952,307.335785 204.957245,307.681305 199.090332,308.028595 
	C197.504593,308.076904 196.752075,308.123444 195.999542,308.169952 
	C187.678329,308.108093 179.357132,308.046234 170.574554,307.959106 
z"/>
<path fill="#DEDEED" opacity="1.000000" stroke="none" 
	d="
M168.493530,316.368408 
	C168.880585,329.733246 168.931396,343.348083 168.972168,357.424316 
	C168.643066,357.248627 168.046112,356.611603 168.045944,355.974426 
	C168.042236,342.855774 168.106506,329.737091 168.493530,316.368408 
z"/>
<path fill="#000000" opacity="1.000000" stroke="none" 
	d="
M229.948090,221.730927 
	C230.022552,223.441422 230.006775,224.808167 229.981140,226.586517 
	C228.753159,226.503983 226.947968,226.339401 226.445129,225.443680 
	C225.535446,223.823257 225.402985,221.766525 224.946014,219.891968 
	C226.583282,220.390366 228.220566,220.888763 229.948090,221.730927 
z"/>
<path fill="#67616F" opacity="1.000000" stroke="none" 
	d="
M229.635925,248.366455 
	C229.879944,259.826172 229.782059,271.524017 229.399353,283.505798 
	C229.174362,272.061340 229.234192,260.332947 229.635925,248.366455 
z"/>
<path fill="#827C88" opacity="1.000000" stroke="none" 
	d="
M221.990082,278.527924 
	C221.655762,276.798798 221.072479,274.608124 221.042389,272.409882 
	C220.935562,264.606964 221.017426,256.801453 221.018677,248.533310 
	C221.347214,249.456558 221.684875,250.843399 222.011078,252.986572 
	C222.059570,254.495483 222.119522,255.248077 222.179474,256.000671 
	C222.117950,263.354767 222.056412,270.708832 221.990082,278.527924 
z"/>
<path fill="#A69FAD" opacity="1.000000" stroke="none" 
	d="
M233.023392,331.533417 
	C233.353165,333.415253 233.911987,335.759521 233.930344,338.107971 
	C233.988831,345.592773 233.846344,353.079132 233.402527,360.772217 
	C233.017395,351.318939 233.011230,341.658356 233.023392,331.533417 
z"/>
<path fill="#000000" opacity="1.000000" stroke="none" 
	d="
M254.376984,277.024536 
	C256.787903,280.625092 254.036606,281.623291 251.290131,282.832886 
	C250.625931,281.147736 250.303421,279.439667 249.965118,277.342590 
	C249.949326,276.953644 249.999207,277.000000 249.976349,276.974731 
	C251.295944,276.971130 252.638382,276.992798 254.376984,277.024536 
z"/>
<path fill="#000000" opacity="1.000000" stroke="none" 
	d="
M287.179138,247.594574 
	C286.264282,247.943420 285.502441,247.946960 284.359497,247.946609 
	C283.911377,247.792511 283.782654,247.640610 283.786774,247.492371 
	C283.832947,245.817856 283.802734,244.127197 284.085388,242.491364 
	C284.119934,242.291260 286.644684,242.195419 286.688019,242.373795 
	C287.072845,243.957642 287.158356,245.614197 287.179138,247.594574 
z"/>
<path fill="#000000" opacity="1.000000" stroke="none" 
	d="
M274.034241,353.695251 
	C272.096375,352.203339 270.210541,350.368225 268.167419,348.236023 
	C269.149323,347.714630 270.576660,346.946930 271.372986,347.369202 
	C273.637146,348.569794 275.513702,350.312683 274.034241,353.695251 
z"/>
<path fill="#DEDEED" opacity="1.000000" stroke="none" 
	d="
M236.628479,299.812805 
	C245.146088,299.794586 253.287415,299.984131 261.636292,300.539215 
	C254.221481,300.932983 246.598953,300.993896 238.977097,300.946198 
	C238.066895,300.940521 237.160400,300.343536 236.628479,299.812805 
z"/>
<path fill="#000000" opacity="1.000000" stroke="none" 
	d="
M132.971741,348.025604 
	C132.957230,347.718262 132.853302,347.315033 133.003738,347.064606 
	C133.811920,345.719330 134.683426,344.412109 135.533051,343.091736 
	C136.313766,343.772064 137.094482,344.452393 137.875183,345.132721 
	C136.511383,346.095062 135.147552,347.057373 133.366394,348.037964 
	C132.949066,348.056213 132.999725,348.000244 132.971741,348.025604 
z"/>
<path fill="#000000" opacity="1.000000" stroke="none" 
	d="
M322.127319,259.117737 
	C323.620819,258.478119 325.076477,258.227264 326.532104,257.976440 
	C326.348694,259.171082 326.165283,260.365753 325.981873,261.560394 
	C324.684387,260.875763 323.386932,260.191132 322.127319,259.117737 
z"/>
<path fill="#000000" opacity="1.000000" stroke="none" 
	d="
M158.694336,257.641418 
	C157.094543,257.768188 155.635040,257.532623 154.175507,257.297028 
	C154.701569,256.252777 155.227615,255.208527 155.753662,254.164276 
	C156.780655,255.202545 157.807632,256.240814 158.694336,257.641418 
z"/>
<path fill="#000000" opacity="1.000000" stroke="none" 
	d="
M191.358643,405.694336 
	C191.231873,404.094604 191.467438,402.635071 191.702972,401.175568 
	C192.747238,401.701599 193.791489,402.227631 194.835754,402.753662 
	C193.797485,403.780640 192.759216,404.807617 191.358643,405.694336 
z"/>
<path fill="#000000" opacity="1.000000" stroke="none" 
	d="
M227.694336,429.641449 
	C226.094559,429.768188 224.635025,429.532593 223.175507,429.297028 
	C223.701553,428.252777 224.227600,427.208496 224.753647,426.164246 
	C225.780624,427.202545 226.807617,428.240814 227.694336,429.641449 
z"/>
<path fill="#000000" opacity="1.000000" stroke="none" 
	d="
M211.632187,412.694672 
	C210.234070,411.803680 209.199585,410.773804 208.165100,409.743896 
	C209.211807,409.221863 210.258514,408.699799 211.305206,408.177734 
	C211.535400,409.637054 211.765610,411.096405 211.632187,412.694672 
z"/>
<path fill="#000000" opacity="1.000000" stroke="none" 
	d="
M119.367851,230.305328 
	C120.765938,231.196320 121.800423,232.226212 122.834908,233.256088 
	C121.788216,233.778137 120.741524,234.300186 119.694839,234.822250 
	C119.464638,233.362915 119.234436,231.903564 119.367851,230.305328 
z"/>
<path fill="#000000" opacity="1.000000" stroke="none" 
	d="
M185.358627,382.694336 
	C185.231857,381.094604 185.467422,379.635071 185.702972,378.175568 
	C186.747223,378.701599 187.791489,379.227631 188.835739,379.753662 
	C187.797470,380.780609 186.759201,381.807587 185.358627,382.694336 
z"/>
<path fill="#000000" opacity="1.000000" stroke="none" 
	d="
M237.882294,372.127319 
	C238.521896,373.620819 238.772736,375.076447 239.023560,376.532104 
	C237.828888,376.348724 236.634216,376.165314 235.439575,375.981934 
	C236.124222,374.684418 236.808884,373.386932 237.882294,372.127319 
z"/>
<path fill="#000000" opacity="1.000000" stroke="none" 
	d="
M256.150024,377.275757 
	C257.136353,378.379333 257.771240,379.539551 258.406097,380.699738 
	C257.290131,380.875519 256.174164,381.051270 255.058197,381.227020 
	C255.304977,379.928802 255.551758,378.630585 256.150024,377.275757 
z"/>
<path fill="#000000" opacity="1.000000" stroke="none" 
	d="
M174.085266,379.917603 
	C173.773346,381.365723 173.210403,382.561829 172.647461,383.757935 
	C171.845963,382.954285 171.044434,382.150665 170.242920,381.347046 
	C171.440018,380.786530 172.637131,380.226013 174.085266,379.917603 
z"/>
<path fill="#000000" opacity="1.000000" stroke="none" 
	d="
M260.917572,388.914734 
	C262.365753,389.226654 263.561829,389.789581 264.757935,390.352539 
	C263.954315,391.154053 263.150696,391.955566 262.347046,392.757080 
	C261.786530,391.559937 261.226013,390.362854 260.917572,388.914734 
z"/>
<path fill="#000000" opacity="1.000000" stroke="none" 
	d="
M314.917572,296.914734 
	C316.365753,297.226624 317.561829,297.789551 318.757935,298.352509 
	C317.954285,299.154022 317.150665,299.955536 316.347046,300.757050 
	C315.786530,299.559937 315.226013,298.362823 314.917572,296.914734 
z"/>
<path fill="#000000" opacity="1.000000" stroke="none" 
	d="
M329.917572,292.914734 
	C331.365753,293.226624 332.561829,293.789551 333.757935,294.352539 
	C332.954315,295.154053 332.150696,295.955566 331.347046,296.757080 
	C330.786530,295.559937 330.226013,294.362854 329.917572,292.914734 
z"/>
<path fill="#000000" opacity="1.000000" stroke="none" 
	d="
M293.517242,285.498657 
	C293.667206,286.975769 293.501862,288.286499 293.336517,289.597198 
	C292.326843,289.082031 291.317200,288.566864 290.307526,288.051697 
	C291.272339,287.145233 292.237122,286.238739 293.517242,285.498657 
z"/>
<path fill="#000000" opacity="1.000000" stroke="none" 
	d="
M338.517242,285.498657 
	C338.667206,286.975769 338.501862,288.286499 338.336517,289.597198 
	C337.326843,289.082031 336.317200,288.566864 335.307526,288.051697 
	C336.272339,287.145233 337.237122,286.238739 338.517242,285.498657 
z"/>
<path fill="#000000" opacity="1.000000" stroke="none" 
	d="
M114.724251,287.150085 
	C113.620628,288.136383 112.460411,288.771210 111.300201,289.406036 
	C111.124458,288.290100 110.948723,287.174133 110.772987,286.058197 
	C112.071213,286.304993 113.369431,286.551788 114.724251,287.150085 
z"/>
<path fill="#000000" opacity="1.000000" stroke="none" 
	d="
M222.482758,414.501312 
	C222.332794,413.024170 222.498138,411.713470 222.663483,410.402740 
	C223.673141,410.917938 224.682800,411.433136 225.692444,411.948303 
	C224.727646,412.854797 223.762848,413.761261 222.482758,414.501312 
z"/>
<path fill="#000000" opacity="1.000000" stroke="none" 
	d="
M308.498657,283.482758 
	C309.975769,283.332794 311.286499,283.498138 312.597198,283.663483 
	C312.082031,284.673157 311.566864,285.682800 311.051697,286.692474 
	C310.145203,285.727692 309.238739,284.762878 308.498657,283.482758 
z"/>
<path fill="#000000" opacity="1.000000" stroke="none" 
	d="
M157.151001,348.723846 
	C156.553467,347.368042 156.306747,346.069977 156.060028,344.771912 
	C157.175629,344.948639 158.291229,345.125366 159.406830,345.302094 
	C158.771820,346.461914 158.136826,347.621735 157.151001,348.723846 
z"/>
<path fill="#000000" opacity="1.000000" stroke="none" 
	d="
M254.232147,246.524551 
	C253.221954,245.902222 252.385971,245.004196 251.283905,243.920624 
	C252.291107,243.038193 253.564392,242.341354 254.837677,241.644516 
	C254.693909,243.179291 254.550140,244.714081 254.232147,246.524551 
z"/>
<path fill="#000000" opacity="1.000000" stroke="none" 
	d="
M208.150055,213.275757 
	C209.136398,214.379379 209.771255,215.539597 210.406113,216.699799 
	C209.290161,216.875534 208.174194,217.051270 207.058243,217.227005 
	C207.305023,215.928787 207.551788,214.630569 208.150055,213.275757 
z"/>
<path fill="#000000" opacity="1.000000" stroke="none" 
	d="
M304.346161,312.984772 
	C304.498260,311.750183 305.041779,310.518219 306.064941,308.996582 
	C306.784851,308.507965 306.980621,308.272064 307.131897,307.999207 
	C309.887299,311.247009 309.533875,311.983337 304.346161,312.984772 
z"/>
<path fill="#000000" opacity="1.000000" stroke="none" 
	d="
M189.984879,314.603027 
	C188.560364,315.214600 187.120956,315.457550 185.341095,315.835663 
	C185.632690,314.424408 186.264740,312.878021 186.896790,311.331604 
	C187.921188,312.299225 188.945587,313.266815 189.984879,314.603027 
z"/>
<path fill="#000000" opacity="1.000000" stroke="none" 
	d="
M204.068268,291.521057 
	C202.809113,290.747772 201.609726,289.626434 200.199402,288.271881 
	C201.111710,287.494293 202.234940,286.949951 203.358185,286.405609 
	C203.614792,287.994751 203.871414,289.583893 204.068268,291.521057 
z"/>
<path fill="#000000" opacity="1.000000" stroke="none" 
	d="
M357.598511,198.066101 
	C357.951263,199.391220 357.968597,200.778763 357.938629,202.580353 
	C354.447784,201.790009 353.773743,200.228027 357.598511,198.066101 
z"/>
<path fill="#000000" opacity="1.000000" stroke="none" 
	d="
M194.068146,204.494385 
	C195.391647,204.116638 196.783554,204.067444 198.587891,204.091797 
	C197.802017,207.512741 196.241043,208.177765 194.068146,204.494385 
z"/>
<path fill="#000000" opacity="1.000000" stroke="none" 
	d="
M196.004120,308.534790 
	C196.752075,308.123444 197.504593,308.076904 198.628830,308.102020 
	C198.461304,309.329620 197.922058,310.485596 197.382843,311.641571 
	C196.924789,310.727600 196.466736,309.813599 196.004120,308.534790 
z"/>
<path fill="#000000" opacity="1.000000" stroke="none" 
	d="
M222.543976,255.995941 
	C222.119522,255.248077 222.059570,254.495483 222.071136,253.371429 
	C223.308746,253.533112 224.474838,254.066269 225.640945,254.599426 
	C224.730118,255.063354 223.819290,255.527298 222.543976,255.995941 
z"/>
<path fill="#000000" opacity="1.000000" stroke="none" 
	d="
M291.612793,214.202881 
	C291.105225,214.850906 290.522003,215.198669 289.938782,215.546448 
	C289.791199,214.986633 289.643646,214.426819 289.496063,213.867004 
	C290.176422,213.878876 290.856750,213.890747 291.612793,214.202881 
z"/>
<path fill="#000000" opacity="1.000000" stroke="none" 
	d="
M149.202881,349.387207 
	C149.850922,349.894775 150.198685,350.477997 150.546448,351.061218 
	C149.986633,351.208771 149.426819,351.356354 148.867004,351.503906 
	C148.878876,350.823578 148.890747,350.143250 149.202881,349.387207 
z"/>
<path fill="#000000" opacity="1.000000" stroke="none" 
	d="
M326.197754,233.612610 
	C325.889954,232.853775 325.881378,232.172821 325.872803,231.491852 
	C326.431610,231.643585 326.990356,231.795319 327.549133,231.947052 
	C327.198425,232.528198 326.847717,233.109344 326.197754,233.612610 
z"/>
<path fill="#000000" opacity="1.000000" stroke="none" 
	d="
M320.802246,236.387375 
	C321.110046,237.146225 321.118622,237.827179 321.127197,238.508133 
	C320.568390,238.356400 320.009644,238.204681 319.450867,238.052948 
	C319.801575,237.471786 320.152283,236.890640 320.802246,236.387375 
z"/>
<path fill="#000000" opacity="1.000000" stroke="none" 
	d="
M330.307129,330.321960 
	C329.496185,330.201172 328.907166,329.864227 328.318176,329.527252 
	C328.729767,329.125305 329.141357,328.723328 329.552948,328.321381 
	C329.878326,328.916168 330.203705,329.510956 330.307129,330.321960 
z"/>
<path fill="#000000" opacity="1.000000" stroke="none" 
	d="
M110.797089,245.612793 
	C110.149063,245.105209 109.801308,244.521988 109.453545,243.938751 
	C110.013367,243.791199 110.573196,243.643661 111.133026,243.496124 
	C111.121140,244.176468 111.109253,244.856796 110.797089,245.612793 
z"/>
<path fill="#000000" opacity="1.000000" stroke="none" 
	d="
M136.692841,208.678070 
	C137.503784,208.798782 138.092773,209.135742 138.681778,209.472702 
	C138.270218,209.874649 137.858658,210.276611 137.447098,210.678558 
	C137.121704,210.083801 136.796295,209.489044 136.692841,208.678070 
z"/>
<path fill="#000000" opacity="1.000000" stroke="none" 
	d="
M268.387390,393.197754 
	C269.146179,392.889893 269.827148,392.881317 270.508087,392.872742 
	C270.356415,393.431519 270.204712,393.990326 270.053009,394.549103 
	C269.471832,394.198425 268.890686,393.847717 268.387390,393.197754 
z"/>
<path fill="#000000" opacity="1.000000" stroke="none" 
	d="
M184.678009,401.307129 
	C184.798798,400.496185 185.135757,399.907166 185.472733,399.318176 
	C185.874664,399.729767 186.276611,400.141388 186.678543,400.552979 
	C186.083755,400.878357 185.488983,401.203735 184.678009,401.307129 
z"/>
<path fill="#000000" opacity="1.000000" stroke="none" 
	d="
M156.321991,272.692871 
	C156.201218,273.503815 155.864243,274.092834 155.527267,274.681824 
	C155.125336,274.270233 154.723389,273.858612 154.321457,273.447021 
	C154.916229,273.121643 155.511017,272.796265 156.321991,272.692871 
z"/>
<path fill="#000000" opacity="1.000000" stroke="none" 
	d="
M108.307144,253.321976 
	C107.496201,253.201233 106.907204,252.864258 106.318207,252.527298 
	C106.729774,252.125351 107.141342,251.723389 107.552910,251.321442 
	C107.878304,251.916214 108.203697,252.510986 108.307144,253.321976 
z"/>
<path fill="#4C4955" opacity="1.000000" stroke="none" 
	d="
M306.935364,307.729004 
	C306.980621,308.272064 306.784851,308.507965 306.325256,308.776917 
	C305.470581,308.563507 304.835236,308.280121 303.764618,307.731873 
	C303.328735,307.297028 303.328125,307.127045 303.327484,306.957031 
	C304.464600,307.124268 305.601715,307.291504 306.935364,307.729004 
z"/>
<path fill="#000000" opacity="1.000000" stroke="none" 
	d="
M303.324646,306.957031 
	C303.328125,307.127045 303.328735,307.297028 303.406525,307.708984 
	C303.483673,307.950928 303.508667,307.937866 303.523254,307.943817 
	C303.529724,307.773956 303.521606,307.598175 303.417114,307.176453 
	C303.320740,306.930573 303.321838,306.957031 303.324646,306.957031 
z"/>
<path fill="#120A22" opacity="1.000000" stroke="none" 
	d="
M333.000000,174.999542 
	C332.117218,174.648773 331.100952,174.469620 330.380951,173.909592 
	C329.096588,172.910568 327.991180,171.681473 326.810913,170.548584 
	C325.510193,172.086380 324.196503,173.613541 322.918457,175.169968 
	C322.623108,175.529648 322.449707,175.989456 322.245880,176.356796 
	C316.561096,175.042679 310.288177,171.535477 305.587738,173.017059 
	C299.456024,174.949799 293.669891,174.137604 287.781097,174.721481 
	C283.416443,175.154236 279.075897,177.484756 274.452637,174.659088 
	C273.125946,173.848251 270.408386,175.313110 268.350037,176.627472 
	C276.570374,179.694977 284.470306,183.028732 293.679871,183.281738 
	C294.821899,183.903656 295.511261,184.213760 296.200592,184.523880 
	C296.132904,184.014450 296.065216,183.505035 295.997559,182.995605 
	C298.102386,182.894913 300.207184,182.794220 302.711670,183.116730 
	C303.740448,183.360367 304.369629,183.180801 304.998779,183.001236 
	C306.957367,183.332626 308.915955,183.664032 310.874573,183.995438 
	C311.016602,184.693695 311.158661,185.391953 311.300720,186.090225 
	C309.320679,187.272232 307.340607,188.454254 304.929871,189.816559 
	C304.332397,189.997879 304.165588,189.998947 303.998779,190.000000 
	C297.345032,190.830704 290.694458,191.688629 284.034393,192.465027 
	C282.936249,192.593063 281.796478,192.363770 280.450012,191.887329 
	C280.268341,190.900940 280.312622,190.326828 280.356903,189.752747 
	C279.940186,189.730087 279.523499,189.707413 279.106781,189.684753 
	C279.071198,190.456467 279.035583,191.228195 279.000000,191.999924 
	C278.097351,192.273865 276.731079,193.066391 276.365479,192.739578 
	C273.479553,190.159668 270.554932,188.036316 266.334595,189.064880 
	C266.213409,189.094406 265.417694,187.254776 265.311127,186.247070 
	C265.124695,184.483994 265.121246,182.683273 265.233032,180.910431 
	C265.540497,176.034332 263.061798,174.673187 258.557129,174.833679 
	C256.616211,174.902847 254.625839,173.583893 252.321106,172.477707 
	C251.987885,168.743729 252.263565,165.394623 251.867386,162.126968 
	C251.697922,160.729294 250.128571,159.501343 249.195328,158.196274 
	C249.764023,156.902420 250.332703,155.608566 250.901382,154.314713 
	C252.336700,155.820343 253.772018,157.325958 255.517609,159.157059 
	C257.952484,153.398117 262.767487,154.319077 267.916992,155.683304 
	C269.871887,156.201187 272.083923,155.882309 274.166931,155.753418 
	C277.948944,155.519394 280.294128,159.584030 278.308014,163.364822 
	C277.623169,161.625015 277.206390,160.037094 276.789581,158.449173 
	C276.205475,158.572113 275.621338,158.695038 275.037201,158.817978 
	C275.037201,162.706528 274.850281,166.610229 275.163208,170.473434 
	C275.245636,171.491531 276.792511,173.074951 277.806671,173.192444 
	C279.976837,173.443909 282.238281,172.907578 284.462341,172.693893 
	C280.752594,172.322617 277.067169,172.461624 278.064209,166.987656 
	C278.857117,167.543533 279.589935,168.437393 280.454346,168.591064 
	C282.921295,169.029617 285.611176,169.778473 287.866547,169.153580 
	C288.923187,168.860840 289.525238,165.723099 289.716034,163.813049 
	C289.956879,161.402115 289.567505,158.928207 289.430603,156.077164 
	C293.935822,155.267075 298.410645,153.445877 303.230133,156.684952 
	C304.648315,157.638062 307.927917,157.156326 309.593811,156.115128 
	C312.624390,154.220978 315.278748,154.161972 318.503021,155.219955 
	C320.779236,155.966843 323.310150,155.943665 325.730560,156.237915 
	C326.048218,156.276535 326.592499,156.008621 326.683014,156.134140 
	C330.461792,161.374985 333.828796,158.573135 337.128723,154.205322 
	C337.349640,154.719482 337.570526,155.233643 337.791443,155.747787 
	C336.252960,161.932190 334.714447,168.116577 333.087982,174.650482 
	C333.000000,175.000000 333.000000,174.999542 333.000000,174.999542 
M259.033081,163.351395 
	C258.861481,163.143555 258.707397,162.915665 258.507019,162.740799 
	C258.451080,162.691986 258.147400,162.792694 258.144623,162.836731 
	C258.019043,164.807220 257.914459,166.779037 257.807343,168.750702 
	C258.097900,168.760513 258.388489,168.770325 258.679047,168.780121 
	C258.834900,168.186783 258.990723,167.593445 259.820435,167.111893 
	C260.442352,167.278671 261.274872,167.782043 261.646881,167.549332 
	C262.779266,166.840912 263.940460,165.985733 264.660828,164.902069 
	C264.968414,164.439316 264.159363,162.528519 263.947449,162.543518 
	C262.784271,162.625885 261.644592,163.087631 260.506104,163.448318 
	C260.049683,163.592926 259.616852,163.812073 259.033081,163.351395 
M297.954559,165.807068 
	C297.389069,166.419662 296.823608,167.032242 296.258148,167.644836 
	C296.743683,167.971924 297.229187,168.298996 297.714691,168.626068 
	C297.945587,167.841995 298.176453,167.057922 297.954559,165.807068 
M285.564209,188.764099 
	C285.820587,188.943924 286.076996,189.123764 286.333374,189.303604 
	C286.169250,189.037094 286.005127,188.770584 285.564209,188.764099 
z"/>
<path fill="#110820" opacity="1.000000" stroke="none" 
	d="
M157.391586,191.505432 
	C154.683807,190.838242 152.193008,190.607437 149.972397,189.708893 
	C148.224243,189.001526 146.809235,187.470795 145.246246,186.305786 
	C146.951324,184.975052 148.555603,182.671661 150.378998,182.482712 
	C158.088837,181.683655 165.863861,181.513702 173.615082,181.114151 
	C173.947403,181.097015 174.390549,180.935898 174.596252,181.089966 
	C180.696167,185.658401 187.663010,181.854431 194.090790,183.146042 
	C194.549789,183.238281 194.966263,183.542145 195.373642,183.734009 
	C195.076324,189.100662 191.671814,193.195129 187.537888,191.242218 
	C181.080490,188.191650 175.235260,191.724609 169.390900,190.669876 
	C165.155014,189.905457 161.492432,189.740936 157.391586,191.505432 
z"/>
<path fill="#0F081E" opacity="1.000000" stroke="none" 
	d="
M116.999695,163.001968 
	C115.296036,160.232254 116.755020,159.704330 118.988007,157.660507 
	C125.390228,151.800598 132.367752,156.850388 138.911148,155.345245 
	C142.467331,154.527237 146.734177,156.798645 150.836273,158.261841 
	C150.653763,160.233414 150.315475,161.619751 149.750763,163.239838 
	C148.336380,164.986359 147.148376,166.499130 145.718735,168.003876 
	C145.477081,167.995865 144.994247,167.968719 144.993118,167.595703 
	C144.597733,166.114517 144.203461,165.006363 143.749115,163.743652 
	C143.689026,163.589111 143.281921,163.527832 143.281921,163.527832 
	C143.281921,163.527832 143.058380,163.957230 142.665771,163.989838 
	C136.880280,165.908829 131.493561,168.064835 125.643784,166.223770 
	C122.714561,165.301895 119.878105,164.085281 116.999695,163.001968 
M146.176514,160.349884 
	C145.356812,160.305939 144.537109,160.261993 143.717392,160.218048 
	C143.750854,160.640076 143.784317,161.062103 143.817795,161.484131 
	C144.687912,161.273758 145.558044,161.063385 146.176514,160.349884 
z"/>
<path fill="#120A22" opacity="1.000000" stroke="none" 
	d="
M116.999847,163.251312 
	C119.878105,164.085281 122.714561,165.301895 125.643784,166.223770 
	C131.493561,168.064835 136.880280,165.908829 142.853271,163.975189 
	C143.433365,163.927933 143.809204,163.898209 143.809204,163.898209 
	C144.203461,165.006363 144.597733,166.114517 144.787567,167.782410 
	C144.565552,168.916367 144.547958,169.490555 144.530365,170.064758 
	C145.007034,169.380463 145.483704,168.696182 145.960388,168.011902 
	C147.148376,166.499130 148.336380,164.986359 149.993805,163.508972 
	C150.645126,166.725693 150.827011,169.907028 151.008881,173.088348 
	C147.913757,173.528839 144.825592,174.031204 141.720169,174.379913 
	C140.443665,174.523270 138.798950,173.813889 137.891129,174.389862 
	C134.173035,176.748840 132.514191,174.711746 131.227859,171.183121 
	C131.298813,170.270966 131.249283,169.864975 131.199753,169.459015 
	C130.796219,169.641434 130.392685,169.823853 129.989151,170.006256 
	C128.064072,170.947998 130.433441,176.271088 125.147865,173.945374 
	C124.133629,173.526276 123.602890,173.439392 123.072159,173.352509 
	C123.373787,173.576904 123.675423,173.801285 123.977058,174.025665 
	C123.008621,174.839355 121.905937,176.421982 121.104012,176.281967 
	C119.972977,176.084503 118.498131,174.774246 118.176285,173.651382 
	C117.456810,171.141312 117.359413,168.452927 117.004387,165.168289 
	C117.000160,164.499390 117.000000,163.999390 117.000000,163.999390 
	C117.000000,163.999390 117.000000,163.500671 116.999847,163.251312 
z"/>
<path fill="#10071C" opacity="1.000000" stroke="none" 
	d="
M202.733505,189.102539 
	C198.862885,184.306091 202.138428,182.134918 205.455399,180.078293 
	C214.661285,185.713699 225.074966,181.404068 234.632721,183.499054 
	C235.448868,189.437820 232.708298,192.605072 226.304047,190.540298 
	C220.845444,188.780426 216.276550,191.070862 211.338928,190.673035 
	C208.549057,190.448257 205.792816,189.805984 202.733505,189.102539 
z"/>
<path fill="#0F081E" opacity="1.000000" stroke="none" 
	d="
M256.356384,189.546127 
	C252.614716,191.452835 244.232071,191.156006 241.386475,188.779266 
	C240.770203,188.264542 240.104813,186.785538 240.376846,186.405457 
	C241.632217,184.651611 243.022293,182.032639 244.711212,181.742172 
	C248.769791,181.044144 253.055237,181.178009 257.179016,181.624298 
	C258.529327,181.770432 260.677612,183.921310 260.668823,185.142502 
	C260.654053,187.190216 260.418793,190.380646 256.356384,189.546127 
z"/>
<path fill="#120A22" opacity="1.000000" stroke="none" 
	d="
M157.996201,157.893982 
	C158.815292,157.342529 159.634384,156.791077 160.453476,156.239609 
	C161.282516,157.823425 162.628220,159.342850 162.835266,161.004181 
	C163.295654,164.698349 163.311981,168.466202 163.234100,172.198273 
	C163.209900,173.358429 162.300888,174.500122 161.796951,175.650269 
	C160.770081,175.093414 159.786499,174.425705 158.706818,174.004105 
	C156.802063,173.260361 154.838715,172.666718 152.486664,171.611328 
	C152.115982,168.835281 152.426117,166.425079 152.137238,164.088913 
	C151.722244,160.732620 152.287689,158.611694 156.292831,158.912079 
	C156.832138,158.952530 157.427032,158.251602 157.996201,157.893982 
z"/>
<path fill="#000000" opacity="1.000000" stroke="none" 
	d="
M222.721710,167.728516 
	C222.135635,169.407822 221.819199,170.811295 221.502747,172.214783 
	C221.171402,172.215179 220.840042,172.215576 220.508698,172.215973 
	C220.508698,167.723969 220.508698,163.231949 220.508698,158.739944 
	C220.687759,158.661942 220.866837,158.583923 221.045898,158.505920 
	C221.552444,160.412750 222.058975,162.319565 222.572266,164.224640 
	C230.047455,165.292084 230.047455,165.292084 232.472672,158.482895 
	C232.689545,162.310806 232.906418,166.138702 233.123306,169.966599 
	C230.450684,164.908020 226.710541,166.218704 222.721710,167.728516 
z"/>
<path fill="#000000" opacity="1.000000" stroke="none" 
	d="
M186.989761,167.803680 
	C186.987396,164.408920 186.987396,161.461258 186.987396,158.261429 
	C189.942764,158.261429 192.697601,158.261429 196.447571,158.261429 
	C193.134140,159.513504 188.314148,157.979019 189.325195,162.687363 
	C189.648651,164.193665 193.435425,164.956284 195.942673,166.211960 
	C194.342377,166.625916 192.600113,167.076599 190.479874,167.625046 
	C190.292236,169.208527 190.088913,170.924530 189.885574,172.640549 
	C189.395554,172.789886 188.905533,172.939224 188.415512,173.088562 
	C187.941055,171.475967 187.466599,169.863358 186.989761,167.803680 
z"/>
<path fill="#000000" opacity="1.000000" stroke="none" 
	d="
M278.049316,166.615967 
	C277.067169,172.461624 280.752594,172.322617 284.462341,172.693893 
	C282.238281,172.907578 279.976837,173.443909 277.806671,173.192444 
	C276.792511,173.074951 275.245636,171.491531 275.163208,170.473434 
	C274.850281,166.610229 275.037201,162.706528 275.037201,158.817978 
	C275.621338,158.695038 276.205475,158.572113 276.789581,158.449173 
	C277.206390,160.037094 277.623169,161.625015 278.064514,163.613708 
	C278.070862,164.757736 278.052643,165.501007 278.049316,166.615967 
z"/>
<path fill="#000000" opacity="1.000000" stroke="none" 
	d="
M249.305695,158.527893 
	C250.128571,159.501343 251.697922,160.729294 251.867386,162.126968 
	C252.263565,165.394623 251.987885,168.743729 251.972626,172.522125 
	C251.676468,173.118698 251.430496,173.304092 250.850449,173.755157 
	C250.477875,173.969711 249.996567,174.015366 249.996552,174.015366 
	C249.535751,173.061554 248.662262,172.097565 248.685501,171.155685 
	C248.786682,167.053452 249.148758,162.957642 249.305695,158.527893 
z"/>
<path fill="#000000" opacity="1.000000" stroke="none" 
	d="
M178.015640,164.174515 
	C178.011749,167.128174 178.011749,169.632599 178.011749,172.137039 
	C173.578064,168.125244 179.777557,160.947357 171.845276,158.181183 
	C175.317780,158.181183 178.283920,158.181183 180.415894,158.181183 
	C179.697510,159.843216 178.858521,161.784256 178.015640,164.174515 
z"/>
<path fill="#000000" opacity="1.000000" stroke="none" 
	d="
M157.561279,157.923523 
	C157.427032,158.251602 156.832138,158.952530 156.292831,158.912079 
	C152.287689,158.611694 151.722244,160.732620 152.137238,164.088913 
	C152.426117,166.425079 152.115982,168.835281 152.084412,171.613800 
	C151.872559,172.273102 151.649750,172.531021 151.217911,172.938644 
	C150.827011,169.907028 150.645126,166.725693 150.220215,163.275238 
	C150.315475,161.619751 150.653763,160.233414 151.022247,158.495056 
	C153.077072,158.079727 155.101715,158.016403 157.561279,157.923523 
z"/>
<path fill="#000000" opacity="1.000000" stroke="none" 
	d="
M238.105865,171.064468 
	C238.574356,166.495392 236.577240,161.873184 239.991608,157.686646 
	C239.991608,162.088120 240.067474,165.937943 239.910416,169.778229 
	C239.886658,170.359238 238.778839,170.895889 238.105865,171.064468 
z"/>
<path fill="#0F081E" opacity="1.000000" stroke="none" 
	d="
M279.250000,192.000092 
	C279.035583,191.228195 279.071198,190.456467 279.106781,189.684753 
	C279.523499,189.707413 279.940186,189.730087 280.356903,189.752747 
	C280.312622,190.326828 280.268341,190.900940 280.112030,191.737213 
	C279.833344,191.999680 279.666656,191.999985 279.250000,192.000092 
z"/>
<path fill="#0F081E" opacity="1.000000" stroke="none" 
	d="
M295.664642,182.996918 
	C296.065216,183.505035 296.132904,184.014450 296.200592,184.523880 
	C295.511261,184.213760 294.821899,183.903656 294.066284,183.297684 
	C294.443909,183.000641 294.887817,182.999435 295.664642,182.996918 
z"/>
<path fill="#0F081E" opacity="1.000000" stroke="none" 
	d="
M304.665466,183.000793 
	C304.369629,183.180801 303.740448,183.360367 303.055054,183.269363 
	C303.443237,182.999298 303.887695,182.999817 304.665466,183.000793 
z"/>
<path fill="#0F081E" opacity="1.000000" stroke="none" 
	d="
M130.121399,170.206558 
	C130.392685,169.823853 130.796219,169.641434 131.199753,169.459015 
	C131.249283,169.864975 131.298813,170.270966 131.171692,170.842743 
	C130.706802,170.858627 130.459671,170.658066 130.121399,170.206558 
z"/>
<path fill="#0F081E" opacity="1.000000" stroke="none" 
	d="
M124.230347,174.014923 
	C123.675423,173.801285 123.373787,173.576904 123.072159,173.352509 
	C123.602890,173.439392 124.133629,173.526276 124.827423,173.801331 
	C124.821533,173.994385 124.652588,173.999268 124.230347,174.014923 
z"/>
<path fill="#120A22" opacity="1.000000" stroke="none" 
	d="
M250.026535,174.228195 
	C249.996567,174.015366 250.477875,173.969711 250.718170,173.946381 
	C250.820724,174.298157 250.682968,174.673264 250.545197,175.048370 
	C250.382309,174.845917 250.219406,174.643463 250.026535,174.228195 
z"/>
<path fill="#120A22" opacity="1.000000" stroke="none" 
	d="
M333.000000,175.000000 
	C333.000000,175.000015 333.333344,175.202728 333.333344,175.202728 
	C333.333344,175.202728 333.088837,175.186432 333.044434,175.092987 
	C333.000000,174.999542 333.000000,175.000000 333.000000,175.000000 
z"/>
<path fill="#0F081E" opacity="1.000000" stroke="none" 
	d="
M116.871857,164.101501 
	C117.000000,163.999390 117.000160,164.499390 117.000076,164.749390 
	C116.656334,164.797119 116.570900,164.531860 116.871857,164.101501 
z"/>
<path fill="#0F081E" opacity="1.000000" stroke="none" 
	d="
M304.102051,190.127930 
	C304.165588,189.998947 304.332397,189.997879 304.749420,189.994492 
	C304.999634,189.992157 304.652161,190.319366 304.652161,190.319366 
	C304.652161,190.319366 304.205292,190.255844 304.102051,190.127930 
z"/>
<path fill="#10071C" opacity="1.000000" stroke="none" 
	d="
M175.882690,306.753662 
	C175.824417,306.907593 175.662399,306.948212 175.256348,306.931763 
	C175.214523,306.568176 175.470047,306.490021 175.882690,306.753662 
z"/>
<path fill="#140A28" opacity="1.000000" stroke="none" 
	d="
M259.173279,163.997299 
	C259.616852,163.812073 260.049683,163.592926 260.506104,163.448318 
	C261.644592,163.087631 262.784271,162.625885 263.947449,162.543518 
	C264.159363,162.528519 264.968414,164.439316 264.660828,164.902069 
	C263.940460,165.985733 262.779266,166.840912 261.646881,167.549332 
	C261.274872,167.782043 260.442352,167.278671 259.428650,166.682266 
	C259.082367,165.500854 259.127808,164.749084 259.173279,163.997299 
z"/>
<path fill="#140A28" opacity="1.000000" stroke="none" 
	d="
M298.180939,166.040466 
	C298.176453,167.057922 297.945587,167.841995 297.714722,168.626068 
	C297.229187,168.298996 296.743683,167.971924 296.258148,167.644836 
	C296.823608,167.032242 297.389069,166.419662 298.180939,166.040466 
z"/>
<path fill="#827C88" opacity="1.000000" stroke="none" 
	d="
M259.103180,163.674347 
	C259.127808,164.749084 259.082367,165.500854 259.091736,166.626373 
	C258.990723,167.593445 258.834900,168.186783 258.679047,168.780121 
	C258.388489,168.770325 258.097900,168.760513 257.807343,168.750702 
	C257.914459,166.779037 258.019043,164.807220 258.144623,162.836731 
	C258.147400,162.792694 258.451080,162.691986 258.507019,162.740799 
	C258.707397,162.915665 258.861481,163.143555 259.103180,163.674347 
z"/>
<path fill="#0F081E" opacity="1.000000" stroke="none" 
	d="
M285.702606,188.634094 
	C286.005127,188.770584 286.169250,189.037094 286.333374,189.303604 
	C286.076996,189.123764 285.820587,188.943924 285.702606,188.634094 
z"/>
<path fill="#120A22" opacity="1.000000" stroke="none" 
	d="
M146.302338,160.601440 
	C145.558044,161.063385 144.687912,161.273758 143.817780,161.484131 
	C143.784317,161.062103 143.750854,160.640076 143.717407,160.218048 
	C144.537109,160.261993 145.356812,160.305939 146.302338,160.601440 
z"/>
<path fill="#000000" opacity="1.000000" stroke="none" 
	d="
M145.718735,168.003876 
	C145.483704,168.696182 145.007034,169.380463 144.530365,170.064758 
	C144.547958,169.490555 144.565552,168.916367 144.788696,168.155441 
	C144.994247,167.968719 145.477081,167.995865 145.718735,168.003876 
z"/>
<path fill="#353141" opacity="1.000000" stroke="none" 
	d="
M143.749115,163.743652 
	C143.809204,163.898209 143.433365,163.927933 143.245880,163.942581 
	C143.058380,163.957230 143.281921,163.527832 143.281921,163.527832 
	C143.281921,163.527832 143.689026,163.589111 143.749115,163.743652 
z"/>
</svg>